<?xml version="1.0" encoding="UTF-8" standalone="no"?><svg xmlns="http://www.w3.org/2000/svg" xmlns:xlink="http://www.w3.org/1999/xlink" contentScriptType="application/ecmascript" contentStyleType="text/css" height="1407px" preserveAspectRatio="none" style="width:1958px;height:1407px;" version="1.1" viewBox="0 0 1958 1407" width="1958px" zoomAndPan="magnify"><defs><filter height="300%" id="f73scgaykvzm5" width="300%" x="-1" y="-1"><feGaussianBlur result="blurOut" stdDeviation="2.0"/><feColorMatrix in="blurOut" result="blurOut2" type="matrix" values="0 0 0 0 0 0 0 0 0 0 0 0 0 0 0 0 0 0 .4 0"/><feOffset dx="4.0" dy="4.0" in="blurOut2" result="blurOut3"/><feBlend in="SourceGraphic" in2="blurOut3" mode="normal"/></filter></defs><g><text fill="#000000" font-family="sans-serif" font-size="18" lengthAdjust="spacing" textLength="255" x="845.25" y="16.708">Person List - Class Diagram</text><!--MD5=[3dcf69e4e87a10af00fce8354034ba4c]
cluster presentation--><polygon fill="#FFFFFF" filter="url(#f73scgaykvzm5)" points="1349,26.9531,1460,26.9531,1467,49.25,1815,49.25,1815,762.4531,1349,762.4531,1349,26.9531" style="stroke:#000000;stroke-width:1.5;"/><line style="stroke:#000000;stroke-width:1.5;" x1="1349" x2="1467" y1="49.25" y2="49.25"/><text fill="#000000" font-family="sans-serif" font-size="14" font-weight="bold" lengthAdjust="spacing" textLength="105" x="1353" y="41.9482">presentation</text><!--MD5=[64e2e010ba86d7988e5cd73bd64f61f9]
cluster ui--><polygon fill="#FFFFFF" filter="url(#f73scgaykvzm5)" points="1454,69.9531,1475,69.9531,1482,92.25,1588,92.25,1588,168.9531,1454,168.9531,1454,69.9531" style="stroke:#000000;stroke-width:1.5;"/><line style="stroke:#000000;stroke-width:1.5;" x1="1454" x2="1482" y1="92.25" y2="92.25"/><text fill="#000000" font-family="sans-serif" font-size="14" font-weight="bold" lengthAdjust="spacing" textLength="15" x="1458" y="84.9482">ui</text><!--MD5=[ea99d4da6fd3f920fad34ef742dfb8bc]
cluster viewmodel--><polygon fill="#FFFFFF" filter="url(#f73scgaykvzm5)" points="1388,192.9531,1479,192.9531,1486,215.25,1654,215.25,1654,432.4531,1388,432.4531,1388,192.9531" style="stroke:#000000;stroke-width:1.5;"/><line style="stroke:#000000;stroke-width:1.5;" x1="1388" x2="1486" y1="215.25" y2="215.25"/><text fill="#000000" font-family="sans-serif" font-size="14" font-weight="bold" lengthAdjust="spacing" textLength="85" x="1392" y="207.9482">viewmodel</text><!--MD5=[9efd739dc08e065dfd87704fb72643e9]
cluster presentationmapper--><polygon fill="#FFFFFF" filter="url(#f73scgaykvzm5)" points="1373,499.4531,1545,499.4531,1552,521.75,1663,521.75,1663,738.4531,1373,738.4531,1373,499.4531" style="stroke:#000000;stroke-width:1.5;"/><line style="stroke:#000000;stroke-width:1.5;" x1="1373" x2="1552" y1="521.75" y2="521.75"/><text fill="#000000" font-family="sans-serif" font-size="14" font-weight="bold" lengthAdjust="spacing" textLength="166" x="1377" y="514.4482">presentationmapper</text><!--MD5=[27f772719433d509ddbc20ff768eba08]
cluster domain--><polygon fill="#FFFFFF" filter="url(#f73scgaykvzm5)" points="656,456.4531,722,456.4531,729,478.75,1325,478.75,1325,1381.4531,656,1381.4531,656,456.4531" style="stroke:#000000;stroke-width:1.5;"/><line style="stroke:#000000;stroke-width:1.5;" x1="656" x2="729" y1="478.75" y2="478.75"/><text fill="#000000" font-family="sans-serif" font-size="14" font-weight="bold" lengthAdjust="spacing" textLength="60" x="660" y="471.4482">domain</text><!--MD5=[e87e603ccfa50601551ee5182e1669af]
cluster usecase--><polygon fill="#FFFFFF" filter="url(#f73scgaykvzm5)" points="779,499.4531,850,499.4531,857,521.75,1265,521.75,1265,738.4531,779,738.4531,779,499.4531" style="stroke:#000000;stroke-width:1.5;"/><line style="stroke:#000000;stroke-width:1.5;" x1="779" x2="857" y1="521.75" y2="521.75"/><text fill="#000000" font-family="sans-serif" font-size="14" font-weight="bold" lengthAdjust="spacing" textLength="65" x="783" y="514.4482">usecase</text><!--MD5=[bd0bd4c41e0e5269e37474fd45a6abb7]
cluster repository--><polygon fill="#FFFFFF" filter="url(#f73scgaykvzm5)" points="751,786.4531,841,786.4531,848,808.75,1049,808.75,1049,1038.4531,751,1038.4531,751,786.4531" style="stroke:#000000;stroke-width:1.5;"/><line style="stroke:#000000;stroke-width:1.5;" x1="751" x2="848" y1="808.75" y2="808.75"/><text fill="#000000" font-family="sans-serif" font-size="14" font-weight="bold" lengthAdjust="spacing" textLength="84" x="755" y="801.4482">repository</text><!--MD5=[2698a8b5f409a3963e5981aefb7a409a]
cluster domainmapper--><polygon fill="#FFFFFF" filter="url(#f73scgaykvzm5)" points="680,1111.9531,807,1111.9531,814,1134.25,1301,1134.25,1301,1357.4531,680,1357.4531,680,1111.9531" style="stroke:#000000;stroke-width:1.5;"/><line style="stroke:#000000;stroke-width:1.5;" x1="680" x2="814" y1="1134.25" y2="1134.25"/><text fill="#000000" font-family="sans-serif" font-size="14" font-weight="bold" lengthAdjust="spacing" textLength="121" x="684" y="1126.9482">domainmapper</text><!--MD5=[dce4c2b5694dd28223e7b1d160ba96c4]
cluster data--><polygon fill="#FFFFFF" filter="url(#f73scgaykvzm5)" points="16,1062.4531,60,1062.4531,67,1084.75,632,1084.75,632,1400.4531,16,1400.4531,16,1062.4531" style="stroke:#000000;stroke-width:1.5;"/><line style="stroke:#000000;stroke-width:1.5;" x1="16" x2="67" y1="1084.75" y2="1084.75"/><text fill="#000000" font-family="sans-serif" font-size="14" font-weight="bold" lengthAdjust="spacing" textLength="38" x="20" y="1077.4482">data</text><!--MD5=[8a509646a725e4b29ac3346bf48b9d0c]
cluster local--><polygon fill="#FFFFFF" filter="url(#f73scgaykvzm5)" points="320,1105.4531,365,1105.4531,372,1127.75,608,1127.75,608,1376.4531,320,1376.4531,320,1105.4531" style="stroke:#000000;stroke-width:1.5;"/><line style="stroke:#000000;stroke-width:1.5;" x1="320" x2="372" y1="1127.75" y2="1127.75"/><text fill="#000000" font-family="sans-serif" font-size="14" font-weight="bold" lengthAdjust="spacing" textLength="39" x="324" y="1120.4482">local</text><!--MD5=[c429691f2fe3ffc642d3e6ed879a8b4b]
cluster remote--><polygon fill="#FFFFFF" filter="url(#f73scgaykvzm5)" points="40,1111.9531,104,1111.9531,111,1134.25,296,1134.25,296,1376.4531,40,1376.4531,40,1111.9531" style="stroke:#000000;stroke-width:1.5;"/><line style="stroke:#000000;stroke-width:1.5;" x1="40" x2="111" y1="1134.25" y2="1134.25"/><text fill="#000000" font-family="sans-serif" font-size="14" font-weight="bold" lengthAdjust="spacing" textLength="58" x="44" y="1126.9482">remote</text><!--MD5=[3728274bfb676b0fae4f156c354566e3]
class UIPerson--><rect codeLine="30" fill="#FEFECE" filter="url(#f73scgaykvzm5)" height="86.4141" id="UIPerson" style="stroke:#A80036;stroke-width:1.5;" width="117" x="1681.5" y="655.4531"/><ellipse cx="1710.9" cy="671.4531" fill="#ADD1B2" rx="11" ry="11" style="stroke:#A80036;stroke-width:1.0;"/><path d="M1713.2438,667.125 C1712.3063,666.6875 1711.7125,666.5469 1710.8375,666.5469 C1708.2125,666.5469 1706.2125,668.625 1706.2125,671.3438 L1706.2125,672.4688 C1706.2125,675.0469 1708.3219,676.9375 1711.2125,676.9375 C1712.4313,676.9375 1713.5875,676.6406 1714.3375,676.0938 C1714.9156,675.6875 1715.2438,675.2344 1715.2438,674.8438 C1715.2438,674.3906 1714.8531,674 1714.3844,674 C1714.1656,674 1713.9625,674.0781 1713.775,674.2656 C1713.3219,674.75 1713.3219,674.75 1713.1344,674.8438 C1712.7125,675.1094 1712.025,675.2344 1711.2594,675.2344 C1709.2125,675.2344 1707.9156,674.1406 1707.9156,672.4375 L1707.9156,671.3438 C1707.9156,669.5625 1709.1656,668.25 1710.9,668.25 C1711.4781,668.25 1712.0875,668.4063 1712.5563,668.6563 C1713.0406,668.9375 1713.2125,669.1563 1713.3063,669.5625 C1713.3688,669.9688 1713.4,670.0938 1713.5406,670.2188 C1713.6813,670.3594 1713.9156,670.4688 1714.1344,670.4688 C1714.4,670.4688 1714.6656,670.3281 1714.8375,670.1094 C1714.9469,669.9531 1714.9781,669.7656 1714.9781,669.3438 L1714.9781,667.9219 C1714.9781,667.4844 1714.9625,667.3594 1714.8688,667.2031 C1714.7125,666.9375 1714.4313,666.7969 1714.1344,666.7969 C1713.8375,666.7969 1713.6344,666.8906 1713.4156,667.2031 L1713.2438,667.125 Z " fill="#000000"/><text fill="#000000" font-family="sans-serif" font-size="12" lengthAdjust="spacing" textLength="53" x="1728.1" y="675.6074">UIPerson</text><line style="stroke:#A80036;stroke-width:1.5;" x1="1682.5" x2="1797.5" y1="687.4531" y2="687.4531"/><ellipse cx="1692.5" cy="698.4531" rx="3" ry="3" style="stroke:#038048;stroke-width:1.0;fill:none;"/><text fill="#000000" font-family="sans-serif" font-size="11" lengthAdjust="spacing" textLength="89" x="1701.5" y="701.6636">acronym: String</text><ellipse cx="1692.5" cy="711.2578" rx="3" ry="3" style="stroke:#038048;stroke-width:1.0;fill:none;"/><text fill="#000000" font-family="sans-serif" font-size="11" lengthAdjust="spacing" textLength="91" x="1701.5" y="714.4683">fullName: String</text><ellipse cx="1692.5" cy="724.0625" rx="3" ry="3" style="stroke:#038048;stroke-width:1.0;fill:none;"/><text fill="#000000" font-family="sans-serif" font-size="11" lengthAdjust="spacing" textLength="86" x="1701.5" y="727.2729">birthday: String</text><line style="stroke:#A80036;stroke-width:1.5;" x1="1682.5" x2="1797.5" y1="733.8672" y2="733.8672"/><!--MD5=[5db00888549904919e3a09c35d77129e]
class MainActivity--><rect codeLine="10" fill="#FEFECE" filter="url(#f73scgaykvzm5)" height="48" id="MainActivity" style="stroke:#A80036;stroke-width:1.5;" width="102" x="1470" y="104.9531"/><ellipse cx="1485" cy="120.9531" fill="#ADD1B2" rx="11" ry="11" style="stroke:#A80036;stroke-width:1.0;"/><path d="M1487.3438,116.625 C1486.4063,116.1875 1485.8125,116.0469 1484.9375,116.0469 C1482.3125,116.0469 1480.3125,118.125 1480.3125,120.8438 L1480.3125,121.9688 C1480.3125,124.5469 1482.4219,126.4375 1485.3125,126.4375 C1486.5313,126.4375 1487.6875,126.1406 1488.4375,125.5938 C1489.0156,125.1875 1489.3438,124.7344 1489.3438,124.3438 C1489.3438,123.8906 1488.9531,123.5 1488.4844,123.5 C1488.2656,123.5 1488.0625,123.5781 1487.875,123.7656 C1487.4219,124.25 1487.4219,124.25 1487.2344,124.3438 C1486.8125,124.6094 1486.125,124.7344 1485.3594,124.7344 C1483.3125,124.7344 1482.0156,123.6406 1482.0156,121.9375 L1482.0156,120.8438 C1482.0156,119.0625 1483.2656,117.75 1485,117.75 C1485.5781,117.75 1486.1875,117.9063 1486.6563,118.1563 C1487.1406,118.4375 1487.3125,118.6563 1487.4063,119.0625 C1487.4688,119.4688 1487.5,119.5938 1487.6406,119.7188 C1487.7813,119.8594 1488.0156,119.9688 1488.2344,119.9688 C1488.5,119.9688 1488.7656,119.8281 1488.9375,119.6094 C1489.0469,119.4531 1489.0781,119.2656 1489.0781,118.8438 L1489.0781,117.4219 C1489.0781,116.9844 1489.0625,116.8594 1488.9688,116.7031 C1488.8125,116.4375 1488.5313,116.2969 1488.2344,116.2969 C1487.9375,116.2969 1487.7344,116.3906 1487.5156,116.7031 L1487.3438,116.625 Z " fill="#000000"/><text fill="#000000" font-family="sans-serif" font-size="12" lengthAdjust="spacing" textLength="70" x="1499" y="125.1074">MainActivity</text><line style="stroke:#A80036;stroke-width:1.5;" x1="1471" x2="1571" y1="136.9531" y2="136.9531"/><line style="stroke:#A80036;stroke-width:1.5;" x1="1471" x2="1571" y1="144.9531" y2="144.9531"/><!--MD5=[1c8c35e51c4e0ea27d4543bb09ded2db]
class PersonViewModel--><rect codeLine="14" fill="#FEFECE" filter="url(#f73scgaykvzm5)" height="73.6094" id="PersonViewModel" style="stroke:#A80036;stroke-width:1.5;" width="233" x="1404.5" y="227.9531"/><ellipse cx="1465.25" cy="243.9531" fill="#B4A7E5" rx="11" ry="11" style="stroke:#A80036;stroke-width:1.0;"/><path d="M1466.2031,240.7344 L1467.9219,240.7344 C1468.3125,240.7344 1468.5,240.7031 1468.625,240.625 C1468.8906,240.4688 1469.0313,240.1875 1469.0313,239.8906 C1469.0313,239.625 1468.9219,239.3594 1468.6875,239.1875 C1468.5156,239.0781 1468.375,239.0469 1467.9219,239.0469 L1462.7813,239.0469 C1462.3438,239.0469 1462.2188,239.0625 1462.0625,239.1563 C1461.8125,239.3125 1461.6563,239.6094 1461.6563,239.8906 C1461.6563,240.1719 1461.7969,240.4219 1462.0156,240.5938 C1462.1719,240.7031 1462.3594,240.7344 1462.7813,240.7344 L1464.5,240.7344 L1464.5,247.25 L1462.7813,247.25 C1462.3438,247.25 1462.2188,247.2656 1462.0625,247.375 C1461.8125,247.5313 1461.6563,247.8125 1461.6563,248.1094 C1461.6563,248.3594 1461.7969,248.625 1462.0156,248.7813 C1462.1719,248.9063 1462.375,248.9531 1462.7813,248.9531 L1467.9219,248.9531 C1468.6719,248.9531 1469.0313,248.6719 1469.0313,248.1094 C1469.0313,247.8281 1468.9219,247.5781 1468.6875,247.4063 C1468.5156,247.2813 1468.375,247.25 1467.9219,247.25 L1466.2031,247.25 L1466.2031,240.7344 Z " fill="#000000"/><text fill="#000000" font-family="sans-serif" font-size="12" font-style="italic" lengthAdjust="spacing" textLength="103" x="1485.75" y="248.1074">PersonViewModel</text><line style="stroke:#A80036;stroke-width:1.5;" x1="1405.5" x2="1636.5" y1="259.9531" y2="259.9531"/><line style="stroke:#A80036;stroke-width:1.5;" x1="1405.5" x2="1636.5" y1="267.9531" y2="267.9531"/><ellipse cx="1415.5" cy="278.9531" fill="#84BE84" rx="3" ry="3" style="stroke:#038048;stroke-width:1.0;"/><text fill="#000000" font-family="sans-serif" font-size="11" lengthAdjust="spacing" textLength="98" x="1424.5" y="282.1636">retrievePersons()</text><ellipse cx="1415.5" cy="291.7578" fill="#84BE84" rx="3" ry="3" style="stroke:#038048;stroke-width:1.0;"/><text fill="#000000" font-family="sans-serif" font-size="11" lengthAdjust="spacing" textLength="207" x="1424.5" y="294.9683">getPersons(): Flow&lt;List&lt;UIPerson&gt;&gt;</text><!--MD5=[60d16232da527d02f1c92982328c48ed]
class PersonViewModelImpl--><rect codeLine="19" fill="#FEFECE" filter="url(#f73scgaykvzm5)" height="48" id="PersonViewModelImpl" style="stroke:#A80036;stroke-width:1.5;" width="164" x="1422" y="368.4531"/><ellipse cx="1437" cy="384.4531" fill="#ADD1B2" rx="11" ry="11" style="stroke:#A80036;stroke-width:1.0;"/><path d="M1439.3438,380.125 C1438.4063,379.6875 1437.8125,379.5469 1436.9375,379.5469 C1434.3125,379.5469 1432.3125,381.625 1432.3125,384.3438 L1432.3125,385.4688 C1432.3125,388.0469 1434.4219,389.9375 1437.3125,389.9375 C1438.5313,389.9375 1439.6875,389.6406 1440.4375,389.0938 C1441.0156,388.6875 1441.3438,388.2344 1441.3438,387.8438 C1441.3438,387.3906 1440.9531,387 1440.4844,387 C1440.2656,387 1440.0625,387.0781 1439.875,387.2656 C1439.4219,387.75 1439.4219,387.75 1439.2344,387.8438 C1438.8125,388.1094 1438.125,388.2344 1437.3594,388.2344 C1435.3125,388.2344 1434.0156,387.1406 1434.0156,385.4375 L1434.0156,384.3438 C1434.0156,382.5625 1435.2656,381.25 1437,381.25 C1437.5781,381.25 1438.1875,381.4063 1438.6563,381.6563 C1439.1406,381.9375 1439.3125,382.1563 1439.4063,382.5625 C1439.4688,382.9688 1439.5,383.0938 1439.6406,383.2188 C1439.7813,383.3594 1440.0156,383.4688 1440.2344,383.4688 C1440.5,383.4688 1440.7656,383.3281 1440.9375,383.1094 C1441.0469,382.9531 1441.0781,382.7656 1441.0781,382.3438 L1441.0781,380.9219 C1441.0781,380.4844 1441.0625,380.3594 1440.9688,380.2031 C1440.8125,379.9375 1440.5313,379.7969 1440.2344,379.7969 C1439.9375,379.7969 1439.7344,379.8906 1439.5156,380.2031 L1439.3438,380.125 Z " fill="#000000"/><text fill="#000000" font-family="sans-serif" font-size="12" lengthAdjust="spacing" textLength="132" x="1451" y="388.6074">PersonViewModelImpl</text><line style="stroke:#A80036;stroke-width:1.5;" x1="1423" x2="1585" y1="400.4531" y2="400.4531"/><line style="stroke:#A80036;stroke-width:1.5;" x1="1423" x2="1585" y1="408.4531" y2="408.4531"/><!--MD5=[b055f01d4ffdc3326c559f828a9e3f96]
class DomainPersonToUIPersonMapper--><rect codeLine="23" fill="#FEFECE" filter="url(#f73scgaykvzm5)" height="60.8047" id="DomainPersonToUIPersonMapper" style="stroke:#A80036;stroke-width:1.5;" width="232" x="1402" y="534.4531"/><ellipse cx="1417.9" cy="550.4531" fill="#B4A7E5" rx="11" ry="11" style="stroke:#A80036;stroke-width:1.0;"/><path d="M1418.8531,547.2344 L1420.5719,547.2344 C1420.9625,547.2344 1421.15,547.2031 1421.275,547.125 C1421.5406,546.9688 1421.6813,546.6875 1421.6813,546.3906 C1421.6813,546.125 1421.5719,545.8594 1421.3375,545.6875 C1421.1656,545.5781 1421.025,545.5469 1420.5719,545.5469 L1415.4313,545.5469 C1414.9938,545.5469 1414.8688,545.5625 1414.7125,545.6563 C1414.4625,545.8125 1414.3063,546.1094 1414.3063,546.3906 C1414.3063,546.6719 1414.4469,546.9219 1414.6656,547.0938 C1414.8219,547.2031 1415.0094,547.2344 1415.4313,547.2344 L1417.15,547.2344 L1417.15,553.75 L1415.4313,553.75 C1414.9938,553.75 1414.8688,553.7656 1414.7125,553.875 C1414.4625,554.0313 1414.3063,554.3125 1414.3063,554.6094 C1414.3063,554.8594 1414.4469,555.125 1414.6656,555.2813 C1414.8219,555.4063 1415.025,555.4531 1415.4313,555.4531 L1420.5719,555.4531 C1421.3219,555.4531 1421.6813,555.1719 1421.6813,554.6094 C1421.6813,554.3281 1421.5719,554.0781 1421.3375,553.9063 C1421.1656,553.7813 1421.025,553.75 1420.5719,553.75 L1418.8531,553.75 L1418.8531,547.2344 Z " fill="#000000"/><text fill="#000000" font-family="sans-serif" font-size="12" font-style="italic" lengthAdjust="spacing" textLength="198" x="1432.1" y="554.6074">DomainPersonToUIPersonMapper</text><line style="stroke:#A80036;stroke-width:1.5;" x1="1403" x2="1633" y1="566.4531" y2="566.4531"/><line style="stroke:#A80036;stroke-width:1.5;" x1="1403" x2="1633" y1="574.4531" y2="574.4531"/><ellipse cx="1413" cy="585.4531" fill="#84BE84" rx="3" ry="3" style="stroke:#038048;stroke-width:1.0;"/><text fill="#000000" font-family="sans-serif" font-size="11" lengthAdjust="spacing" textLength="206" x="1422" y="588.6636">map(input: DomainPerson): UIPerson</text><!--MD5=[47add8070d29000fc35a31305018ada7]
class DomainPersonToUIPersonMapperImpl--><rect codeLine="27" fill="#FEFECE" filter="url(#f73scgaykvzm5)" height="48" id="DomainPersonToUIPersonMapperImpl" style="stroke:#A80036;stroke-width:1.5;" width="257" x="1389.5" y="674.4531"/><ellipse cx="1404.5" cy="690.4531" fill="#ADD1B2" rx="11" ry="11" style="stroke:#A80036;stroke-width:1.0;"/><path d="M1406.8438,686.125 C1405.9063,685.6875 1405.3125,685.5469 1404.4375,685.5469 C1401.8125,685.5469 1399.8125,687.625 1399.8125,690.3438 L1399.8125,691.4688 C1399.8125,694.0469 1401.9219,695.9375 1404.8125,695.9375 C1406.0313,695.9375 1407.1875,695.6406 1407.9375,695.0938 C1408.5156,694.6875 1408.8438,694.2344 1408.8438,693.8438 C1408.8438,693.3906 1408.4531,693 1407.9844,693 C1407.7656,693 1407.5625,693.0781 1407.375,693.2656 C1406.9219,693.75 1406.9219,693.75 1406.7344,693.8438 C1406.3125,694.1094 1405.625,694.2344 1404.8594,694.2344 C1402.8125,694.2344 1401.5156,693.1406 1401.5156,691.4375 L1401.5156,690.3438 C1401.5156,688.5625 1402.7656,687.25 1404.5,687.25 C1405.0781,687.25 1405.6875,687.4063 1406.1563,687.6563 C1406.6406,687.9375 1406.8125,688.1563 1406.9063,688.5625 C1406.9688,688.9688 1407,689.0938 1407.1406,689.2188 C1407.2813,689.3594 1407.5156,689.4688 1407.7344,689.4688 C1408,689.4688 1408.2656,689.3281 1408.4375,689.1094 C1408.5469,688.9531 1408.5781,688.7656 1408.5781,688.3438 L1408.5781,686.9219 C1408.5781,686.4844 1408.5625,686.3594 1408.4688,686.2031 C1408.3125,685.9375 1408.0313,685.7969 1407.7344,685.7969 C1407.4375,685.7969 1407.2344,685.8906 1407.0156,686.2031 L1406.8438,686.125 Z " fill="#000000"/><text fill="#000000" font-family="sans-serif" font-size="12" lengthAdjust="spacing" textLength="225" x="1418.5" y="694.6074">DomainPersonToUIPersonMapperImpl</text><line style="stroke:#A80036;stroke-width:1.5;" x1="1390.5" x2="1645.5" y1="706.4531" y2="706.4531"/><line style="stroke:#A80036;stroke-width:1.5;" x1="1390.5" x2="1645.5" y1="714.4531" y2="714.4531"/><!--MD5=[5df45dbf9c438c7f320467417c9660b3]
class DomainPerson--><rect codeLine="76" fill="#FEFECE" filter="url(#f73scgaykvzm5)" height="86.4141" id="DomainPerson" style="stroke:#A80036;stroke-width:1.5;" width="121" x="1187.5" y="955.4531"/><ellipse cx="1203.85" cy="971.4531" fill="#ADD1B2" rx="11" ry="11" style="stroke:#A80036;stroke-width:1.0;"/><path d="M1206.1938,967.125 C1205.2563,966.6875 1204.6625,966.5469 1203.7875,966.5469 C1201.1625,966.5469 1199.1625,968.625 1199.1625,971.3438 L1199.1625,972.4688 C1199.1625,975.0469 1201.2719,976.9375 1204.1625,976.9375 C1205.3813,976.9375 1206.5375,976.6406 1207.2875,976.0938 C1207.8656,975.6875 1208.1938,975.2344 1208.1938,974.8438 C1208.1938,974.3906 1207.8031,974 1207.3344,974 C1207.1156,974 1206.9125,974.0781 1206.725,974.2656 C1206.2719,974.75 1206.2719,974.75 1206.0844,974.8438 C1205.6625,975.1094 1204.975,975.2344 1204.2094,975.2344 C1202.1625,975.2344 1200.8656,974.1406 1200.8656,972.4375 L1200.8656,971.3438 C1200.8656,969.5625 1202.1156,968.25 1203.85,968.25 C1204.4281,968.25 1205.0375,968.4063 1205.5063,968.6563 C1205.9906,968.9375 1206.1625,969.1563 1206.2563,969.5625 C1206.3188,969.9688 1206.35,970.0938 1206.4906,970.2188 C1206.6313,970.3594 1206.8656,970.4688 1207.0844,970.4688 C1207.35,970.4688 1207.6156,970.3281 1207.7875,970.1094 C1207.8969,969.9531 1207.9281,969.7656 1207.9281,969.3438 L1207.9281,967.9219 C1207.9281,967.4844 1207.9125,967.3594 1207.8188,967.2031 C1207.6625,966.9375 1207.3813,966.7969 1207.0844,966.7969 C1206.7875,966.7969 1206.5844,966.8906 1206.3656,967.2031 L1206.1938,967.125 Z " fill="#000000"/><text fill="#000000" font-family="sans-serif" font-size="12" lengthAdjust="spacing" textLength="86" x="1218.15" y="975.6074">DomainPerson</text><line style="stroke:#A80036;stroke-width:1.5;" x1="1188.5" x2="1307.5" y1="987.4531" y2="987.4531"/><ellipse cx="1198.5" cy="998.4531" rx="3" ry="3" style="stroke:#038048;stroke-width:1.0;fill:none;"/><text fill="#000000" font-family="sans-serif" font-size="11" lengthAdjust="spacing" textLength="95" x="1207.5" y="1001.6636">firstName: String</text><ellipse cx="1198.5" cy="1011.2578" rx="3" ry="3" style="stroke:#038048;stroke-width:1.0;fill:none;"/><text fill="#000000" font-family="sans-serif" font-size="11" lengthAdjust="spacing" textLength="94" x="1207.5" y="1014.4683">lastName: String</text><ellipse cx="1198.5" cy="1024.0625" rx="3" ry="3" style="stroke:#038048;stroke-width:1.0;fill:none;"/><text fill="#000000" font-family="sans-serif" font-size="11" lengthAdjust="spacing" textLength="83" x="1207.5" y="1027.2729">birthDay: Date</text><line style="stroke:#A80036;stroke-width:1.5;" x1="1188.5" x2="1307.5" y1="1033.8672" y2="1033.8672"/><!--MD5=[dc2db18fd0c56e08c6d08d11677e29bc]
class RetrievePersonsUseCase--><rect codeLine="40" fill="#FEFECE" filter="url(#f73scgaykvzm5)" height="60.8047" id="RetrievePersonsUseCase" style="stroke:#A80036;stroke-width:1.5;" width="177" x="795.5" y="534.4531"/><ellipse cx="810.5" cy="550.4531" fill="#B4A7E5" rx="11" ry="11" style="stroke:#A80036;stroke-width:1.0;"/><path d="M811.4531,547.2344 L813.1719,547.2344 C813.5625,547.2344 813.75,547.2031 813.875,547.125 C814.1406,546.9688 814.2813,546.6875 814.2813,546.3906 C814.2813,546.125 814.1719,545.8594 813.9375,545.6875 C813.7656,545.5781 813.625,545.5469 813.1719,545.5469 L808.0313,545.5469 C807.5938,545.5469 807.4688,545.5625 807.3125,545.6563 C807.0625,545.8125 806.9063,546.1094 806.9063,546.3906 C806.9063,546.6719 807.0469,546.9219 807.2656,547.0938 C807.4219,547.2031 807.6094,547.2344 808.0313,547.2344 L809.75,547.2344 L809.75,553.75 L808.0313,553.75 C807.5938,553.75 807.4688,553.7656 807.3125,553.875 C807.0625,554.0313 806.9063,554.3125 806.9063,554.6094 C806.9063,554.8594 807.0469,555.125 807.2656,555.2813 C807.4219,555.4063 807.625,555.4531 808.0313,555.4531 L813.1719,555.4531 C813.9219,555.4531 814.2813,555.1719 814.2813,554.6094 C814.2813,554.3281 814.1719,554.0781 813.9375,553.9063 C813.7656,553.7813 813.625,553.75 813.1719,553.75 L811.4531,553.75 L811.4531,547.2344 Z " fill="#000000"/><text fill="#000000" font-family="sans-serif" font-size="12" font-style="italic" lengthAdjust="spacing" textLength="145" x="824.5" y="554.6074">RetrievePersonsUseCase</text><line style="stroke:#A80036;stroke-width:1.5;" x1="796.5" x2="971.5" y1="566.4531" y2="566.4531"/><line style="stroke:#A80036;stroke-width:1.5;" x1="796.5" x2="971.5" y1="574.4531" y2="574.4531"/><ellipse cx="806.5" cy="585.4531" fill="#84BE84" rx="3" ry="3" style="stroke:#038048;stroke-width:1.0;"/><text fill="#000000" font-family="sans-serif" font-size="11" lengthAdjust="spacing" textLength="98" x="815.5" y="588.6636">suspend invoke()</text><!--MD5=[d985fabb25ec28f57de5376aa626295a]
class RetrievePersonsUseCaseImpl--><rect codeLine="44" fill="#FEFECE" filter="url(#f73scgaykvzm5)" height="48" id="RetrievePersonsUseCaseImpl" style="stroke:#A80036;stroke-width:1.5;" width="209" x="795.5" y="674.4531"/><ellipse cx="810.5" cy="690.4531" fill="#ADD1B2" rx="11" ry="11" style="stroke:#A80036;stroke-width:1.0;"/><path d="M812.8438,686.125 C811.9063,685.6875 811.3125,685.5469 810.4375,685.5469 C807.8125,685.5469 805.8125,687.625 805.8125,690.3438 L805.8125,691.4688 C805.8125,694.0469 807.9219,695.9375 810.8125,695.9375 C812.0313,695.9375 813.1875,695.6406 813.9375,695.0938 C814.5156,694.6875 814.8438,694.2344 814.8438,693.8438 C814.8438,693.3906 814.4531,693 813.9844,693 C813.7656,693 813.5625,693.0781 813.375,693.2656 C812.9219,693.75 812.9219,693.75 812.7344,693.8438 C812.3125,694.1094 811.625,694.2344 810.8594,694.2344 C808.8125,694.2344 807.5156,693.1406 807.5156,691.4375 L807.5156,690.3438 C807.5156,688.5625 808.7656,687.25 810.5,687.25 C811.0781,687.25 811.6875,687.4063 812.1563,687.6563 C812.6406,687.9375 812.8125,688.1563 812.9063,688.5625 C812.9688,688.9688 813,689.0938 813.1406,689.2188 C813.2813,689.3594 813.5156,689.4688 813.7344,689.4688 C814,689.4688 814.2656,689.3281 814.4375,689.1094 C814.5469,688.9531 814.5781,688.7656 814.5781,688.3438 L814.5781,686.9219 C814.5781,686.4844 814.5625,686.3594 814.4688,686.2031 C814.3125,685.9375 814.0313,685.7969 813.7344,685.7969 C813.4375,685.7969 813.2344,685.8906 813.0156,686.2031 L812.8438,686.125 Z " fill="#000000"/><text fill="#000000" font-family="sans-serif" font-size="12" lengthAdjust="spacing" textLength="177" x="824.5" y="694.6074">RetrievePersonsUseCaseImpl</text><line style="stroke:#A80036;stroke-width:1.5;" x1="796.5" x2="1003.5" y1="706.4531" y2="706.4531"/><line style="stroke:#A80036;stroke-width:1.5;" x1="796.5" x2="1003.5" y1="714.4531" y2="714.4531"/><!--MD5=[18e7cd8d94fb91aa2e20cc65608ab5db]
class GetPersonsUseCase--><rect codeLine="46" fill="#FEFECE" filter="url(#f73scgaykvzm5)" height="60.8047" id="GetPersonsUseCase" style="stroke:#A80036;stroke-width:1.5;" width="241" x="1007.5" y="534.4531"/><ellipse cx="1065.25" cy="550.4531" fill="#B4A7E5" rx="11" ry="11" style="stroke:#A80036;stroke-width:1.0;"/><path d="M1066.2031,547.2344 L1067.9219,547.2344 C1068.3125,547.2344 1068.5,547.2031 1068.625,547.125 C1068.8906,546.9688 1069.0313,546.6875 1069.0313,546.3906 C1069.0313,546.125 1068.9219,545.8594 1068.6875,545.6875 C1068.5156,545.5781 1068.375,545.5469 1067.9219,545.5469 L1062.7813,545.5469 C1062.3438,545.5469 1062.2188,545.5625 1062.0625,545.6563 C1061.8125,545.8125 1061.6563,546.1094 1061.6563,546.3906 C1061.6563,546.6719 1061.7969,546.9219 1062.0156,547.0938 C1062.1719,547.2031 1062.3594,547.2344 1062.7813,547.2344 L1064.5,547.2344 L1064.5,553.75 L1062.7813,553.75 C1062.3438,553.75 1062.2188,553.7656 1062.0625,553.875 C1061.8125,554.0313 1061.6563,554.3125 1061.6563,554.6094 C1061.6563,554.8594 1061.7969,555.125 1062.0156,555.2813 C1062.1719,555.4063 1062.375,555.4531 1062.7813,555.4531 L1067.9219,555.4531 C1068.6719,555.4531 1069.0313,555.1719 1069.0313,554.6094 C1069.0313,554.3281 1068.9219,554.0781 1068.6875,553.9063 C1068.5156,553.7813 1068.375,553.75 1067.9219,553.75 L1066.2031,553.75 L1066.2031,547.2344 Z " fill="#000000"/><text fill="#000000" font-family="sans-serif" font-size="12" font-style="italic" lengthAdjust="spacing" textLength="117" x="1085.75" y="554.6074">GetPersonsUseCase</text><line style="stroke:#A80036;stroke-width:1.5;" x1="1008.5" x2="1247.5" y1="566.4531" y2="566.4531"/><line style="stroke:#A80036;stroke-width:1.5;" x1="1008.5" x2="1247.5" y1="574.4531" y2="574.4531"/><ellipse cx="1018.5" cy="585.4531" fill="#84BE84" rx="3" ry="3" style="stroke:#038048;stroke-width:1.0;"/><text fill="#000000" font-family="sans-serif" font-size="11" lengthAdjust="spacing" textLength="215" x="1027.5" y="588.6636">invoke(): Flow&lt;List&lt;DomainPerson&gt;&gt;</text><!--MD5=[8713907759c759cf2bd6842b9e5fd559]
class GetPersonsUseCaseImpl--><rect codeLine="50" fill="#FEFECE" filter="url(#f73scgaykvzm5)" height="48" id="GetPersonsUseCaseImpl" style="stroke:#A80036;stroke-width:1.5;" width="180" x="1040" y="674.4531"/><ellipse cx="1055" cy="690.4531" fill="#ADD1B2" rx="11" ry="11" style="stroke:#A80036;stroke-width:1.0;"/><path d="M1057.3438,686.125 C1056.4063,685.6875 1055.8125,685.5469 1054.9375,685.5469 C1052.3125,685.5469 1050.3125,687.625 1050.3125,690.3438 L1050.3125,691.4688 C1050.3125,694.0469 1052.4219,695.9375 1055.3125,695.9375 C1056.5313,695.9375 1057.6875,695.6406 1058.4375,695.0938 C1059.0156,694.6875 1059.3438,694.2344 1059.3438,693.8438 C1059.3438,693.3906 1058.9531,693 1058.4844,693 C1058.2656,693 1058.0625,693.0781 1057.875,693.2656 C1057.4219,693.75 1057.4219,693.75 1057.2344,693.8438 C1056.8125,694.1094 1056.125,694.2344 1055.3594,694.2344 C1053.3125,694.2344 1052.0156,693.1406 1052.0156,691.4375 L1052.0156,690.3438 C1052.0156,688.5625 1053.2656,687.25 1055,687.25 C1055.5781,687.25 1056.1875,687.4063 1056.6563,687.6563 C1057.1406,687.9375 1057.3125,688.1563 1057.4063,688.5625 C1057.4688,688.9688 1057.5,689.0938 1057.6406,689.2188 C1057.7813,689.3594 1058.0156,689.4688 1058.2344,689.4688 C1058.5,689.4688 1058.7656,689.3281 1058.9375,689.1094 C1059.0469,688.9531 1059.0781,688.7656 1059.0781,688.3438 L1059.0781,686.9219 C1059.0781,686.4844 1059.0625,686.3594 1058.9688,686.2031 C1058.8125,685.9375 1058.5313,685.7969 1058.2344,685.7969 C1057.9375,685.7969 1057.7344,685.8906 1057.5156,686.2031 L1057.3438,686.125 Z " fill="#000000"/><text fill="#000000" font-family="sans-serif" font-size="12" lengthAdjust="spacing" textLength="148" x="1069" y="694.6074">GetPersonsUseCaseImpl</text><line style="stroke:#A80036;stroke-width:1.5;" x1="1041" x2="1219" y1="706.4531" y2="706.4531"/><line style="stroke:#A80036;stroke-width:1.5;" x1="1041" x2="1219" y1="714.4531" y2="714.4531"/><!--MD5=[5dd80b0e2cfd5a340a8bdf0f03b209ed]
class PersonRepository--><rect codeLine="54" fill="#FEFECE" filter="url(#f73scgaykvzm5)" height="73.6094" id="PersonRepository" style="stroke:#A80036;stroke-width:1.5;" width="266" x="767" y="821.4531"/><ellipse cx="844.25" cy="837.4531" fill="#B4A7E5" rx="11" ry="11" style="stroke:#A80036;stroke-width:1.0;"/><path d="M845.2031,834.2344 L846.9219,834.2344 C847.3125,834.2344 847.5,834.2031 847.625,834.125 C847.8906,833.9688 848.0313,833.6875 848.0313,833.3906 C848.0313,833.125 847.9219,832.8594 847.6875,832.6875 C847.5156,832.5781 847.375,832.5469 846.9219,832.5469 L841.7813,832.5469 C841.3438,832.5469 841.2188,832.5625 841.0625,832.6563 C840.8125,832.8125 840.6563,833.1094 840.6563,833.3906 C840.6563,833.6719 840.7969,833.9219 841.0156,834.0938 C841.1719,834.2031 841.3594,834.2344 841.7813,834.2344 L843.5,834.2344 L843.5,840.75 L841.7813,840.75 C841.3438,840.75 841.2188,840.7656 841.0625,840.875 C840.8125,841.0313 840.6563,841.3125 840.6563,841.6094 C840.6563,841.8594 840.7969,842.125 841.0156,842.2813 C841.1719,842.4063 841.375,842.4531 841.7813,842.4531 L846.9219,842.4531 C847.6719,842.4531 848.0313,842.1719 848.0313,841.6094 C848.0313,841.3281 847.9219,841.0781 847.6875,840.9063 C847.5156,840.7813 847.375,840.75 846.9219,840.75 L845.2031,840.75 L845.2031,834.2344 Z " fill="#000000"/><text fill="#000000" font-family="sans-serif" font-size="12" font-style="italic" lengthAdjust="spacing" textLength="103" x="864.75" y="841.6074">PersonRepository</text><line style="stroke:#A80036;stroke-width:1.5;" x1="768" x2="1032" y1="853.4531" y2="853.4531"/><line style="stroke:#A80036;stroke-width:1.5;" x1="768" x2="1032" y1="861.4531" y2="861.4531"/><ellipse cx="778" cy="872.4531" fill="#84BE84" rx="3" ry="3" style="stroke:#038048;stroke-width:1.0;"/><text fill="#000000" font-family="sans-serif" font-size="11" lengthAdjust="spacing" textLength="150" x="787" y="875.6636">suspend retrievePersons()</text><ellipse cx="778" cy="885.2578" fill="#84BE84" rx="3" ry="3" style="stroke:#038048;stroke-width:1.0;"/><text fill="#000000" font-family="sans-serif" font-size="11" lengthAdjust="spacing" textLength="240" x="787" y="888.4683">getPersons(): Flow&lt;List&lt;DomainPerson&gt;&gt;</text><!--MD5=[f70da1103e018830028eda4f18ca6f26]
class PersonRepositoryImpl--><rect codeLine="59" fill="#FEFECE" filter="url(#f73scgaykvzm5)" height="48" id="PersonRepositoryImpl" style="stroke:#A80036;stroke-width:1.5;" width="163" x="767.5" y="974.4531"/><ellipse cx="782.5" cy="990.4531" fill="#ADD1B2" rx="11" ry="11" style="stroke:#A80036;stroke-width:1.0;"/><path d="M784.8438,986.125 C783.9063,985.6875 783.3125,985.5469 782.4375,985.5469 C779.8125,985.5469 777.8125,987.625 777.8125,990.3438 L777.8125,991.4688 C777.8125,994.0469 779.9219,995.9375 782.8125,995.9375 C784.0313,995.9375 785.1875,995.6406 785.9375,995.0938 C786.5156,994.6875 786.8438,994.2344 786.8438,993.8438 C786.8438,993.3906 786.4531,993 785.9844,993 C785.7656,993 785.5625,993.0781 785.375,993.2656 C784.9219,993.75 784.9219,993.75 784.7344,993.8438 C784.3125,994.1094 783.625,994.2344 782.8594,994.2344 C780.8125,994.2344 779.5156,993.1406 779.5156,991.4375 L779.5156,990.3438 C779.5156,988.5625 780.7656,987.25 782.5,987.25 C783.0781,987.25 783.6875,987.4063 784.1563,987.6563 C784.6406,987.9375 784.8125,988.1563 784.9063,988.5625 C784.9688,988.9688 785,989.0938 785.1406,989.2188 C785.2813,989.3594 785.5156,989.4688 785.7344,989.4688 C786,989.4688 786.2656,989.3281 786.4375,989.1094 C786.5469,988.9531 786.5781,988.7656 786.5781,988.3438 L786.5781,986.9219 C786.5781,986.4844 786.5625,986.3594 786.4688,986.2031 C786.3125,985.9375 786.0313,985.7969 785.7344,985.7969 C785.4375,985.7969 785.2344,985.8906 785.0156,986.2031 L784.8438,986.125 Z " fill="#000000"/><text fill="#000000" font-family="sans-serif" font-size="12" lengthAdjust="spacing" textLength="131" x="796.5" y="994.6074">PersonRepositoryImpl</text><line style="stroke:#A80036;stroke-width:1.5;" x1="768.5" x2="929.5" y1="1006.4531" y2="1006.4531"/><line style="stroke:#A80036;stroke-width:1.5;" x1="768.5" x2="929.5" y1="1014.4531" y2="1014.4531"/><!--MD5=[8bb2572e7b0d527062ffa6c2de1c64d8]
class RemotePersonToLocalPersonMapper--><rect codeLine="63" fill="#FEFECE" filter="url(#f73scgaykvzm5)" height="60.8047" id="RemotePersonToLocalPersonMapper" style="stroke:#A80036;stroke-width:1.5;" width="251" x="703.5" y="1146.9531"/><ellipse cx="719.85" cy="1162.9531" fill="#B4A7E5" rx="11" ry="11" style="stroke:#A80036;stroke-width:1.0;"/><path d="M720.8031,1159.7344 L722.5219,1159.7344 C722.9125,1159.7344 723.1,1159.7031 723.225,1159.625 C723.4906,1159.4688 723.6313,1159.1875 723.6313,1158.8906 C723.6313,1158.625 723.5219,1158.3594 723.2875,1158.1875 C723.1156,1158.0781 722.975,1158.0469 722.5219,1158.0469 L717.3813,1158.0469 C716.9438,1158.0469 716.8188,1158.0625 716.6625,1158.1563 C716.4125,1158.3125 716.2563,1158.6094 716.2563,1158.8906 C716.2563,1159.1719 716.3969,1159.4219 716.6156,1159.5938 C716.7719,1159.7031 716.9594,1159.7344 717.3813,1159.7344 L719.1,1159.7344 L719.1,1166.25 L717.3813,1166.25 C716.9438,1166.25 716.8188,1166.2656 716.6625,1166.375 C716.4125,1166.5313 716.2563,1166.8125 716.2563,1167.1094 C716.2563,1167.3594 716.3969,1167.625 716.6156,1167.7813 C716.7719,1167.9063 716.975,1167.9531 717.3813,1167.9531 L722.5219,1167.9531 C723.2719,1167.9531 723.6313,1167.6719 723.6313,1167.1094 C723.6313,1166.8281 723.5219,1166.5781 723.2875,1166.4063 C723.1156,1166.2813 722.975,1166.25 722.5219,1166.25 L720.8031,1166.25 L720.8031,1159.7344 Z " fill="#000000"/><text fill="#000000" font-family="sans-serif" font-size="12" font-style="italic" lengthAdjust="spacing" textLength="216" x="734.15" y="1167.1074">RemotePersonToLocalPersonMapper</text><line style="stroke:#A80036;stroke-width:1.5;" x1="704.5" x2="953.5" y1="1178.9531" y2="1178.9531"/><line style="stroke:#A80036;stroke-width:1.5;" x1="704.5" x2="953.5" y1="1186.9531" y2="1186.9531"/><ellipse cx="714.5" cy="1197.9531" fill="#84BE84" rx="3" ry="3" style="stroke:#038048;stroke-width:1.0;"/><text fill="#000000" font-family="sans-serif" font-size="11" lengthAdjust="spacing" textLength="225" x="723.5" y="1201.1636">map(input: RemotePerson): LocalPerson</text><!--MD5=[325d740245d40e22bee3e17dfb7f10eb]
class RemotePersonToLocalPersonMapperImpl--><rect codeLine="67" fill="#FEFECE" filter="url(#f73scgaykvzm5)" height="48" id="RemotePersonToLocalPersonMapperImpl" style="stroke:#A80036;stroke-width:1.5;" width="277" x="696.5" y="1293.4531"/><ellipse cx="711.5" cy="1309.4531" fill="#ADD1B2" rx="11" ry="11" style="stroke:#A80036;stroke-width:1.0;"/><path d="M713.8438,1305.125 C712.9063,1304.6875 712.3125,1304.5469 711.4375,1304.5469 C708.8125,1304.5469 706.8125,1306.625 706.8125,1309.3438 L706.8125,1310.4688 C706.8125,1313.0469 708.9219,1314.9375 711.8125,1314.9375 C713.0313,1314.9375 714.1875,1314.6406 714.9375,1314.0938 C715.5156,1313.6875 715.8438,1313.2344 715.8438,1312.8438 C715.8438,1312.3906 715.4531,1312 714.9844,1312 C714.7656,1312 714.5625,1312.0781 714.375,1312.2656 C713.9219,1312.75 713.9219,1312.75 713.7344,1312.8438 C713.3125,1313.1094 712.625,1313.2344 711.8594,1313.2344 C709.8125,1313.2344 708.5156,1312.1406 708.5156,1310.4375 L708.5156,1309.3438 C708.5156,1307.5625 709.7656,1306.25 711.5,1306.25 C712.0781,1306.25 712.6875,1306.4063 713.1563,1306.6563 C713.6406,1306.9375 713.8125,1307.1563 713.9063,1307.5625 C713.9688,1307.9688 714,1308.0938 714.1406,1308.2188 C714.2813,1308.3594 714.5156,1308.4688 714.7344,1308.4688 C715,1308.4688 715.2656,1308.3281 715.4375,1308.1094 C715.5469,1307.9531 715.5781,1307.7656 715.5781,1307.3438 L715.5781,1305.9219 C715.5781,1305.4844 715.5625,1305.3594 715.4688,1305.2031 C715.3125,1304.9375 715.0313,1304.7969 714.7344,1304.7969 C714.4375,1304.7969 714.2344,1304.8906 714.0156,1305.2031 L713.8438,1305.125 Z " fill="#000000"/><text fill="#000000" font-family="sans-serif" font-size="12" lengthAdjust="spacing" textLength="245" x="725.5" y="1313.6074">RemotePersonToLocalPersonMapperImpl</text><line style="stroke:#A80036;stroke-width:1.5;" x1="697.5" x2="972.5" y1="1325.4531" y2="1325.4531"/><line style="stroke:#A80036;stroke-width:1.5;" x1="697.5" x2="972.5" y1="1333.4531" y2="1333.4531"/><!--MD5=[8dfbf5ab93656bc91086cd6b5677813c]
class LocalPersonToDomainPersonMapper--><rect codeLine="69" fill="#FEFECE" filter="url(#f73scgaykvzm5)" height="60.8047" id="LocalPersonToDomainPersonMapper" style="stroke:#A80036;stroke-width:1.5;" width="250" x="990" y="1146.9531"/><ellipse cx="1005.9" cy="1162.9531" fill="#B4A7E5" rx="11" ry="11" style="stroke:#A80036;stroke-width:1.0;"/><path d="M1006.8531,1159.7344 L1008.5719,1159.7344 C1008.9625,1159.7344 1009.15,1159.7031 1009.275,1159.625 C1009.5406,1159.4688 1009.6813,1159.1875 1009.6813,1158.8906 C1009.6813,1158.625 1009.5719,1158.3594 1009.3375,1158.1875 C1009.1656,1158.0781 1009.025,1158.0469 1008.5719,1158.0469 L1003.4313,1158.0469 C1002.9938,1158.0469 1002.8688,1158.0625 1002.7125,1158.1563 C1002.4625,1158.3125 1002.3063,1158.6094 1002.3063,1158.8906 C1002.3063,1159.1719 1002.4469,1159.4219 1002.6656,1159.5938 C1002.8219,1159.7031 1003.0094,1159.7344 1003.4313,1159.7344 L1005.15,1159.7344 L1005.15,1166.25 L1003.4313,1166.25 C1002.9938,1166.25 1002.8688,1166.2656 1002.7125,1166.375 C1002.4625,1166.5313 1002.3063,1166.8125 1002.3063,1167.1094 C1002.3063,1167.3594 1002.4469,1167.625 1002.6656,1167.7813 C1002.8219,1167.9063 1003.025,1167.9531 1003.4313,1167.9531 L1008.5719,1167.9531 C1009.3219,1167.9531 1009.6813,1167.6719 1009.6813,1167.1094 C1009.6813,1166.8281 1009.5719,1166.5781 1009.3375,1166.4063 C1009.1656,1166.2813 1009.025,1166.25 1008.5719,1166.25 L1006.8531,1166.25 L1006.8531,1159.7344 Z " fill="#000000"/><text fill="#000000" font-family="sans-serif" font-size="12" font-style="italic" lengthAdjust="spacing" textLength="216" x="1020.1" y="1167.1074">LocalPersonToDomainPersonMapper</text><line style="stroke:#A80036;stroke-width:1.5;" x1="991" x2="1239" y1="1178.9531" y2="1178.9531"/><line style="stroke:#A80036;stroke-width:1.5;" x1="991" x2="1239" y1="1186.9531" y2="1186.9531"/><ellipse cx="1001" cy="1197.9531" fill="#84BE84" rx="3" ry="3" style="stroke:#038048;stroke-width:1.0;"/><text fill="#000000" font-family="sans-serif" font-size="11" lengthAdjust="spacing" textLength="224" x="1010" y="1201.1636">map(input: LocalPerson): DomainPerson</text><!--MD5=[b7ce559af3d0030a0ef4eca8d528ff61]
class LocalPersonToDomainPersonMapperImpl--><rect codeLine="73" fill="#FEFECE" filter="url(#f73scgaykvzm5)" height="48" id="LocalPersonToDomainPersonMapperImpl" style="stroke:#A80036;stroke-width:1.5;" width="276" x="1009" y="1293.4531"/><ellipse cx="1024" cy="1309.4531" fill="#ADD1B2" rx="11" ry="11" style="stroke:#A80036;stroke-width:1.0;"/><path d="M1026.3438,1305.125 C1025.4063,1304.6875 1024.8125,1304.5469 1023.9375,1304.5469 C1021.3125,1304.5469 1019.3125,1306.625 1019.3125,1309.3438 L1019.3125,1310.4688 C1019.3125,1313.0469 1021.4219,1314.9375 1024.3125,1314.9375 C1025.5313,1314.9375 1026.6875,1314.6406 1027.4375,1314.0938 C1028.0156,1313.6875 1028.3438,1313.2344 1028.3438,1312.8438 C1028.3438,1312.3906 1027.9531,1312 1027.4844,1312 C1027.2656,1312 1027.0625,1312.0781 1026.875,1312.2656 C1026.4219,1312.75 1026.4219,1312.75 1026.2344,1312.8438 C1025.8125,1313.1094 1025.125,1313.2344 1024.3594,1313.2344 C1022.3125,1313.2344 1021.0156,1312.1406 1021.0156,1310.4375 L1021.0156,1309.3438 C1021.0156,1307.5625 1022.2656,1306.25 1024,1306.25 C1024.5781,1306.25 1025.1875,1306.4063 1025.6563,1306.6563 C1026.1406,1306.9375 1026.3125,1307.1563 1026.4063,1307.5625 C1026.4688,1307.9688 1026.5,1308.0938 1026.6406,1308.2188 C1026.7813,1308.3594 1027.0156,1308.4688 1027.2344,1308.4688 C1027.5,1308.4688 1027.7656,1308.3281 1027.9375,1308.1094 C1028.0469,1307.9531 1028.0781,1307.7656 1028.0781,1307.3438 L1028.0781,1305.9219 C1028.0781,1305.4844 1028.0625,1305.3594 1027.9688,1305.2031 C1027.8125,1304.9375 1027.5313,1304.7969 1027.2344,1304.7969 C1026.9375,1304.7969 1026.7344,1304.8906 1026.5156,1305.2031 L1026.3438,1305.125 Z " fill="#000000"/><text fill="#000000" font-family="sans-serif" font-size="12" lengthAdjust="spacing" textLength="244" x="1038" y="1313.6074">LocalPersonToDomainPersonMapperImpl</text><line style="stroke:#A80036;stroke-width:1.5;" x1="1010" x2="1284" y1="1325.4531" y2="1325.4531"/><line style="stroke:#A80036;stroke-width:1.5;" x1="1010" x2="1284" y1="1333.4531" y2="1333.4531"/><!--MD5=[330674a62bc2281e7957a5ef1dbcb059]
class PersonLocalDataSource--><rect codeLine="86" fill="#FEFECE" filter="url(#f73scgaykvzm5)" height="73.6094" id="PersonLocalDataSource" style="stroke:#A80036;stroke-width:1.5;" width="255" x="336.5" y="1140.4531"/><ellipse cx="389.25" cy="1156.4531" fill="#B4A7E5" rx="11" ry="11" style="stroke:#A80036;stroke-width:1.0;"/><path d="M390.2031,1153.2344 L391.9219,1153.2344 C392.3125,1153.2344 392.5,1153.2031 392.625,1153.125 C392.8906,1152.9688 393.0313,1152.6875 393.0313,1152.3906 C393.0313,1152.125 392.9219,1151.8594 392.6875,1151.6875 C392.5156,1151.5781 392.375,1151.5469 391.9219,1151.5469 L386.7813,1151.5469 C386.3438,1151.5469 386.2188,1151.5625 386.0625,1151.6563 C385.8125,1151.8125 385.6563,1152.1094 385.6563,1152.3906 C385.6563,1152.6719 385.7969,1152.9219 386.0156,1153.0938 C386.1719,1153.2031 386.3594,1153.2344 386.7813,1153.2344 L388.5,1153.2344 L388.5,1159.75 L386.7813,1159.75 C386.3438,1159.75 386.2188,1159.7656 386.0625,1159.875 C385.8125,1160.0313 385.6563,1160.3125 385.6563,1160.6094 C385.6563,1160.8594 385.7969,1161.125 386.0156,1161.2813 C386.1719,1161.4063 386.375,1161.4531 386.7813,1161.4531 L391.9219,1161.4531 C392.6719,1161.4531 393.0313,1161.1719 393.0313,1160.6094 C393.0313,1160.3281 392.9219,1160.0781 392.6875,1159.9063 C392.5156,1159.7813 392.375,1159.75 391.9219,1159.75 L390.2031,1159.75 L390.2031,1153.2344 Z " fill="#000000"/><text fill="#000000" font-family="sans-serif" font-size="12" font-style="italic" lengthAdjust="spacing" textLength="141" x="409.75" y="1160.6074">PersonLocalDataSource</text><line style="stroke:#A80036;stroke-width:1.5;" x1="337.5" x2="590.5" y1="1172.4531" y2="1172.4531"/><line style="stroke:#A80036;stroke-width:1.5;" x1="337.5" x2="590.5" y1="1180.4531" y2="1180.4531"/><ellipse cx="347.5" cy="1191.4531" fill="#84BE84" rx="3" ry="3" style="stroke:#038048;stroke-width:1.0;"/><text fill="#000000" font-family="sans-serif" font-size="11" lengthAdjust="spacing" textLength="229" x="356.5" y="1194.6636">addPersons(persons: List&lt;LocalPerson&gt;)</text><ellipse cx="347.5" cy="1204.2578" fill="#84BE84" rx="3" ry="3" style="stroke:#038048;stroke-width:1.0;"/><text fill="#000000" font-family="sans-serif" font-size="11" lengthAdjust="spacing" textLength="225" x="356.5" y="1207.4683">getPersons(): Flow&lt;List&lt;LocalPerson&gt;&gt;</text><!--MD5=[b0ba9d2b4417ee4b8c07cec5ecd798ac]
class LocalPerson--><rect codeLine="91" fill="#FEFECE" filter="url(#f73scgaykvzm5)" height="86.4141" id="LocalPerson" style="stroke:#A80036;stroke-width:1.5;" width="121" x="470.5" y="1274.4531"/><ellipse cx="493.15" cy="1290.4531" fill="#ADD1B2" rx="11" ry="11" style="stroke:#A80036;stroke-width:1.0;"/><path d="M495.4938,1286.125 C494.5563,1285.6875 493.9625,1285.5469 493.0875,1285.5469 C490.4625,1285.5469 488.4625,1287.625 488.4625,1290.3438 L488.4625,1291.4688 C488.4625,1294.0469 490.5719,1295.9375 493.4625,1295.9375 C494.6813,1295.9375 495.8375,1295.6406 496.5875,1295.0938 C497.1656,1294.6875 497.4938,1294.2344 497.4938,1293.8438 C497.4938,1293.3906 497.1031,1293 496.6344,1293 C496.4156,1293 496.2125,1293.0781 496.025,1293.2656 C495.5719,1293.75 495.5719,1293.75 495.3844,1293.8438 C494.9625,1294.1094 494.275,1294.2344 493.5094,1294.2344 C491.4625,1294.2344 490.1656,1293.1406 490.1656,1291.4375 L490.1656,1290.3438 C490.1656,1288.5625 491.4156,1287.25 493.15,1287.25 C493.7281,1287.25 494.3375,1287.4063 494.8063,1287.6563 C495.2906,1287.9375 495.4625,1288.1563 495.5563,1288.5625 C495.6188,1288.9688 495.65,1289.0938 495.7906,1289.2188 C495.9313,1289.3594 496.1656,1289.4688 496.3844,1289.4688 C496.65,1289.4688 496.9156,1289.3281 497.0875,1289.1094 C497.1969,1288.9531 497.2281,1288.7656 497.2281,1288.3438 L497.2281,1286.9219 C497.2281,1286.4844 497.2125,1286.3594 497.1188,1286.2031 C496.9625,1285.9375 496.6813,1285.7969 496.3844,1285.7969 C496.0875,1285.7969 495.8844,1285.8906 495.6656,1286.2031 L495.4938,1286.125 Z " fill="#000000"/><text fill="#000000" font-family="sans-serif" font-size="12" lengthAdjust="spacing" textLength="72" x="508.85" y="1294.6074">LocalPerson</text><line style="stroke:#A80036;stroke-width:1.5;" x1="471.5" x2="590.5" y1="1306.4531" y2="1306.4531"/><ellipse cx="481.5" cy="1317.4531" rx="3" ry="3" style="stroke:#038048;stroke-width:1.0;fill:none;"/><text fill="#000000" font-family="sans-serif" font-size="11" lengthAdjust="spacing" textLength="95" x="490.5" y="1320.6636">firstName: String</text><ellipse cx="481.5" cy="1330.2578" rx="3" ry="3" style="stroke:#038048;stroke-width:1.0;fill:none;"/><text fill="#000000" font-family="sans-serif" font-size="11" lengthAdjust="spacing" textLength="94" x="490.5" y="1333.4683">lastName: String</text><ellipse cx="481.5" cy="1343.0625" rx="3" ry="3" style="stroke:#038048;stroke-width:1.0;fill:none;"/><text fill="#000000" font-family="sans-serif" font-size="11" lengthAdjust="spacing" textLength="83" x="490.5" y="1346.2729">birthDay: Date</text><line style="stroke:#A80036;stroke-width:1.5;" x1="471.5" x2="590.5" y1="1352.8672" y2="1352.8672"/><!--MD5=[1962740c2feac1986f657ab8019443c4]
class PersonRemoteDataSource--><rect codeLine="99" fill="#FEFECE" filter="url(#f73scgaykvzm5)" height="60.8047" id="PersonRemoteDataSource" style="stroke:#A80036;stroke-width:1.5;" width="224" x="56" y="1146.9531"/><ellipse cx="87.2" cy="1162.9531" fill="#B4A7E5" rx="11" ry="11" style="stroke:#A80036;stroke-width:1.0;"/><path d="M88.1531,1159.7344 L89.8719,1159.7344 C90.2625,1159.7344 90.45,1159.7031 90.575,1159.625 C90.8406,1159.4688 90.9813,1159.1875 90.9813,1158.8906 C90.9813,1158.625 90.8719,1158.3594 90.6375,1158.1875 C90.4656,1158.0781 90.325,1158.0469 89.8719,1158.0469 L84.7313,1158.0469 C84.2938,1158.0469 84.1688,1158.0625 84.0125,1158.1563 C83.7625,1158.3125 83.6063,1158.6094 83.6063,1158.8906 C83.6063,1159.1719 83.7469,1159.4219 83.9656,1159.5938 C84.1219,1159.7031 84.3094,1159.7344 84.7313,1159.7344 L86.45,1159.7344 L86.45,1166.25 L84.7313,1166.25 C84.2938,1166.25 84.1688,1166.2656 84.0125,1166.375 C83.7625,1166.5313 83.6063,1166.8125 83.6063,1167.1094 C83.6063,1167.3594 83.7469,1167.625 83.9656,1167.7813 C84.1219,1167.9063 84.325,1167.9531 84.7313,1167.9531 L89.8719,1167.9531 C90.6219,1167.9531 90.9813,1167.6719 90.9813,1167.1094 C90.9813,1166.8281 90.8719,1166.5781 90.6375,1166.4063 C90.4656,1166.2813 90.325,1166.25 89.8719,1166.25 L88.1531,1166.25 L88.1531,1159.7344 Z " fill="#000000"/><text fill="#000000" font-family="sans-serif" font-size="12" font-style="italic" lengthAdjust="spacing" textLength="156" x="104.8" y="1167.1074">PersonRemoteDataSource</text><line style="stroke:#A80036;stroke-width:1.5;" x1="57" x2="279" y1="1178.9531" y2="1178.9531"/><line style="stroke:#A80036;stroke-width:1.5;" x1="57" x2="279" y1="1186.9531" y2="1186.9531"/><ellipse cx="67" cy="1197.9531" fill="#84BE84" rx="3" ry="3" style="stroke:#038048;stroke-width:1.0;"/><text fill="#000000" font-family="sans-serif" font-size="11" lengthAdjust="spacing" textLength="198" x="76" y="1201.1636">getPersons(): List&lt;RemotePerson&gt;</text><!--MD5=[a6c94e525dd31279e19470ff05b4bca4]
class RemotePerson--><rect codeLine="103" fill="#FEFECE" filter="url(#f73scgaykvzm5)" height="86.4141" id="RemotePerson" style="stroke:#A80036;stroke-width:1.5;" width="121" x="158.5" y="1274.4531"/><ellipse cx="174.4" cy="1290.4531" fill="#ADD1B2" rx="11" ry="11" style="stroke:#A80036;stroke-width:1.0;"/><path d="M176.7438,1286.125 C175.8063,1285.6875 175.2125,1285.5469 174.3375,1285.5469 C171.7125,1285.5469 169.7125,1287.625 169.7125,1290.3438 L169.7125,1291.4688 C169.7125,1294.0469 171.8219,1295.9375 174.7125,1295.9375 C175.9313,1295.9375 177.0875,1295.6406 177.8375,1295.0938 C178.4156,1294.6875 178.7438,1294.2344 178.7438,1293.8438 C178.7438,1293.3906 178.3531,1293 177.8844,1293 C177.6656,1293 177.4625,1293.0781 177.275,1293.2656 C176.8219,1293.75 176.8219,1293.75 176.6344,1293.8438 C176.2125,1294.1094 175.525,1294.2344 174.7594,1294.2344 C172.7125,1294.2344 171.4156,1293.1406 171.4156,1291.4375 L171.4156,1290.3438 C171.4156,1288.5625 172.6656,1287.25 174.4,1287.25 C174.9781,1287.25 175.5875,1287.4063 176.0563,1287.6563 C176.5406,1287.9375 176.7125,1288.1563 176.8063,1288.5625 C176.8688,1288.9688 176.9,1289.0938 177.0406,1289.2188 C177.1813,1289.3594 177.4156,1289.4688 177.6344,1289.4688 C177.9,1289.4688 178.1656,1289.3281 178.3375,1289.1094 C178.4469,1288.9531 178.4781,1288.7656 178.4781,1288.3438 L178.4781,1286.9219 C178.4781,1286.4844 178.4625,1286.3594 178.3688,1286.2031 C178.2125,1285.9375 177.9313,1285.7969 177.6344,1285.7969 C177.3375,1285.7969 177.1344,1285.8906 176.9156,1286.2031 L176.7438,1286.125 Z " fill="#000000"/><text fill="#000000" font-family="sans-serif" font-size="12" lengthAdjust="spacing" textLength="87" x="188.6" y="1294.6074">RemotePerson</text><line style="stroke:#A80036;stroke-width:1.5;" x1="159.5" x2="278.5" y1="1306.4531" y2="1306.4531"/><ellipse cx="169.5" cy="1317.4531" rx="3" ry="3" style="stroke:#038048;stroke-width:1.0;fill:none;"/><text fill="#000000" font-family="sans-serif" font-size="11" lengthAdjust="spacing" textLength="95" x="178.5" y="1320.6636">firstName: String</text><ellipse cx="169.5" cy="1330.2578" rx="3" ry="3" style="stroke:#038048;stroke-width:1.0;fill:none;"/><text fill="#000000" font-family="sans-serif" font-size="11" lengthAdjust="spacing" textLength="94" x="178.5" y="1333.4683">lastName: String</text><ellipse cx="169.5" cy="1343.0625" rx="3" ry="3" style="stroke:#038048;stroke-width:1.0;fill:none;"/><text fill="#000000" font-family="sans-serif" font-size="11" lengthAdjust="spacing" textLength="88" x="178.5" y="1346.2729">birthDay: String</text><line style="stroke:#A80036;stroke-width:1.5;" x1="159.5" x2="278.5" y1="1352.8672" y2="1352.8672"/><!--MD5=[085457430d2356209d15d1291460c965]
class Mapper--><rect codeLine="3" fill="#FEFECE" filter="url(#f73scgaykvzm5)" height="60.8047" id="Mapper" style="stroke:#A80036;stroke-width:1.5;" width="113" x="1831.5" y="361.9531"/><ellipse cx="1862.7" cy="377.9531" fill="#B4A7E5" rx="11" ry="11" style="stroke:#A80036;stroke-width:1.0;"/><path d="M1863.6531,374.7344 L1865.3719,374.7344 C1865.7625,374.7344 1865.95,374.7031 1866.075,374.625 C1866.3406,374.4688 1866.4813,374.1875 1866.4813,373.8906 C1866.4813,373.625 1866.3719,373.3594 1866.1375,373.1875 C1865.9656,373.0781 1865.825,373.0469 1865.3719,373.0469 L1860.2313,373.0469 C1859.7938,373.0469 1859.6688,373.0625 1859.5125,373.1563 C1859.2625,373.3125 1859.1063,373.6094 1859.1063,373.8906 C1859.1063,374.1719 1859.2469,374.4219 1859.4656,374.5938 C1859.6219,374.7031 1859.8094,374.7344 1860.2313,374.7344 L1861.95,374.7344 L1861.95,381.25 L1860.2313,381.25 C1859.7938,381.25 1859.6688,381.2656 1859.5125,381.375 C1859.2625,381.5313 1859.1063,381.8125 1859.1063,382.1094 C1859.1063,382.3594 1859.2469,382.625 1859.4656,382.7813 C1859.6219,382.9063 1859.825,382.9531 1860.2313,382.9531 L1865.3719,382.9531 C1866.1219,382.9531 1866.4813,382.6719 1866.4813,382.1094 C1866.4813,381.8281 1866.3719,381.5781 1866.1375,381.4063 C1865.9656,381.2813 1865.825,381.25 1865.3719,381.25 L1863.6531,381.25 L1863.6531,374.7344 Z " fill="#000000"/><text fill="#000000" font-family="sans-serif" font-size="12" font-style="italic" lengthAdjust="spacing" textLength="45" x="1880.3" y="382.1074">Mapper</text><line style="stroke:#A80036;stroke-width:1.5;" x1="1832.5" x2="1943.5" y1="393.9531" y2="393.9531"/><line style="stroke:#A80036;stroke-width:1.5;" x1="1832.5" x2="1943.5" y1="401.9531" y2="401.9531"/><ellipse cx="1842.5" cy="412.9531" fill="#84BE84" rx="3" ry="3" style="stroke:#038048;stroke-width:1.0;"/><text fill="#000000" font-family="sans-serif" font-size="11" lengthAdjust="spacing" textLength="87" x="1851.5" y="416.1636">map(input: I): O</text><!--MD5=[2f7c357518c71b3a9c10757b8d18d46d]
reverse link PersonViewModel to PersonViewModelImpl--><path d="M1513.38,322.1931 C1511.18,338.4431 1508.9,355.2831 1507.14,368.2831 " fill="none" id="PersonViewModel-backto-PersonViewModelImpl" style="stroke:#A80036;stroke-width:1.0;stroke-dasharray:7.0,7.0;"/><polygon fill="none" points="1506.46,321.1331,1516.08,302.2531,1520.33,323.0131,1506.46,321.1331" style="stroke:#A80036;stroke-width:1.0;"/><!--MD5=[a4bbe36547749522ef3750d63f7b9e6c]
reverse link Mapper to DomainPersonToUIPersonMapper--><path d="M1813.14,427.9491 C1745.28,459.2201 1646.33,504.8191 1582.05,534.4381 " fill="none" id="Mapper-backto-DomainPersonToUIPersonMapper" style="stroke:#A80036;stroke-width:1.0;"/><polygon fill="none" points="1810.31,421.5471,1831.4,419.5341,1816.17,434.2621,1810.31,421.5471" style="stroke:#A80036;stroke-width:1.0;"/><!--MD5=[b656dc40e58398c58feba482828f487e]
reverse link DomainPersonToUIPersonMapper to DomainPersonToUIPersonMapperImpl--><path d="M1518,615.6601 C1518,635.7451 1518,657.9581 1518,674.1601 " fill="none" id="DomainPersonToUIPersonMapper-backto-DomainPersonToUIPersonMapperImpl" style="stroke:#A80036;stroke-width:1.0;stroke-dasharray:7.0,7.0;"/><polygon fill="none" points="1511,615.4641,1518,595.4641,1525,615.4641,1511,615.4641" style="stroke:#A80036;stroke-width:1.0;"/><!--MD5=[96e1c597fae99c0b4b9978cbd5114e31]
reverse link RetrievePersonsUseCase to RetrievePersonsUseCaseImpl--><path d="M890.009,615.3411 C892.463,635.5101 895.184,657.8721 897.166,674.1601 " fill="none" id="RetrievePersonsUseCase-backto-RetrievePersonsUseCaseImpl" style="stroke:#A80036;stroke-width:1.0;stroke-dasharray:7.0,7.0;"/><polygon fill="none" points="883.058,616.1631,887.591,595.4641,896.955,614.4721,883.058,616.1631" style="stroke:#A80036;stroke-width:1.0;"/><!--MD5=[0cd574aa6ef0393a88bc71b31760bc86]
reverse link GetPersonsUseCase to GetPersonsUseCaseImpl--><path d="M1128.76,615.6601 C1129.06,635.7451 1129.4,657.9581 1129.65,674.1601 " fill="none" id="GetPersonsUseCase-backto-GetPersonsUseCaseImpl" style="stroke:#A80036;stroke-width:1.0;stroke-dasharray:7.0,7.0;"/><polygon fill="none" points="1121.75,615.5681,1128.45,595.4641,1135.75,615.3551,1121.75,615.5681" style="stroke:#A80036;stroke-width:1.0;"/><!--MD5=[eb80e6adda6f1740dee3d451b9fd4c60]
reverse link PersonRepository to PersonRepositoryImpl--><path d="M879.643,914.5371 C871.927,935.4161 863.555,958.0691 857.515,974.4131 " fill="none" id="PersonRepository-backto-PersonRepositoryImpl" style="stroke:#A80036;stroke-width:1.0;stroke-dasharray:7.0,7.0;"/><polygon fill="none" points="873.101,912.0441,886.6,895.7111,886.233,916.8971,873.101,912.0441" style="stroke:#A80036;stroke-width:1.0;"/><!--MD5=[dcfba7eebde656c9f8d3dcd880f684db]
reverse link Mapper to RemotePersonToLocalPersonMapper--><path d="M1878.48,443.0931 C1867.81,503.1051 1852,607.2821 1852,697.4531 C1852,697.4531 1852,697.4531 1852,859.4531 C1852,1107.9841 1569.43,1001.5141 1325,1046.4531 C1286.41,1053.5471 1008.65,1040.4681 972,1054.4531 C922.606,1073.2981 878.462,1117.1481 852.703,1146.8091 " fill="none" id="Mapper-backto-RemotePersonToLocalPersonMapper" style="stroke:#A80036;stroke-width:1.0;"/><polygon fill="none" points="1871.65,441.5041,1882.14,423.0891,1885.42,444.0221,1871.65,441.5041" style="stroke:#A80036;stroke-width:1.0;"/><!--MD5=[d3290ef3cbe26bbd3afe1ac09c9ce55e]
reverse link RemotePersonToLocalPersonMapper to RemotePersonToLocalPersonMapperImpl--><path d="M831.161,1228.1501 C832.128,1250.3861 833.221,1275.5311 833.993,1293.2861 " fill="none" id="RemotePersonToLocalPersonMapper-backto-RemotePersonToLocalPersonMapperImpl" style="stroke:#A80036;stroke-width:1.0;stroke-dasharray:7.0,7.0;"/><polygon fill="none" points="824.163,1228.3431,830.287,1208.0571,838.149,1227.7341,824.163,1228.3431" style="stroke:#A80036;stroke-width:1.0;"/><!--MD5=[b36ba16e2600616bee2d776ffb7daecf]
reverse link Mapper to LocalPersonToDomainPersonMapper--><path d="M1897.26,443.1041 C1907.63,503.1281 1923,607.3171 1923,697.4531 C1923,697.4531 1923,697.4531 1923,859.4531 C1923,944.9371 1940.45,988.0781 1878,1046.4531 C1787.63,1130.9311 1432.55,1161.1391 1240.29,1171.4421 " fill="none" id="Mapper-backto-LocalPersonToDomainPersonMapper" style="stroke:#A80036;stroke-width:1.0;"/><polygon fill="none" points="1890.31,444.0131,1893.7,423.0961,1904.09,441.5631,1890.31,444.0131" style="stroke:#A80036;stroke-width:1.0;"/><!--MD5=[f9e7fc557d90d2b775a67e8956198bdc]
reverse link LocalPersonToDomainPersonMapper to LocalPersonToDomainPersonMapperImpl--><path d="M1126.44,1227.8061 C1131.62,1250.1271 1137.49,1275.4401 1141.63,1293.2861 " fill="none" id="LocalPersonToDomainPersonMapper-backto-LocalPersonToDomainPersonMapperImpl" style="stroke:#A80036;stroke-width:1.0;stroke-dasharray:7.0,7.0;"/><polygon fill="none" points="1119.56,1229.1221,1121.86,1208.0571,1133.2,1225.9591,1119.56,1229.1221" style="stroke:#A80036;stroke-width:1.0;"/><!--MD5=[37ef7bafd67fbace6f54a97e6f3519cb]
link MainActivity to PersonViewModel--><path codeLine="111" d="M1521,152.9931 C1521,172.1231 1521,199.8131 1521,222.7431 " fill="none" id="MainActivity-to-PersonViewModel" style="stroke:#A80036;stroke-width:1.0;"/><polygon fill="#A80036" points="1521,227.8631,1525,218.8631,1521,222.8631,1517,218.8631,1521,227.8631" style="stroke:#A80036;stroke-width:1.0;"/><!--MD5=[6ccae42edaaf914c072a22b720d594e7]
link PersonViewModel to UIPerson--><path codeLine="112" d="M1553.43,302.1631 C1568.87,319.8431 1587.34,341.6431 1603,361.9531 C1631.56,399.0131 1642.52,406.3931 1663,448.4531 C1695.56,515.3151 1718.05,598.9581 1729.98,650.2751 " fill="none" id="PersonViewModel-to-UIPerson" style="stroke:#A80036;stroke-width:1.0;"/><polygon fill="#A80036" points="1731.17,655.4461,1733.0463,645.7776,1730.047,650.5739,1725.2507,647.5745,1731.17,655.4461" style="stroke:#A80036;stroke-width:1.0;"/><!--MD5=[62810f67bb0b20e86cb31db5d5f08218]
link PersonViewModelImpl to RetrievePersonsUseCase--><path codeLine="113" d="M1421.88,395.2431 C1296.36,399.1431 1063.61,411.3031 990,448.4531 C953.675,466.7871 923.626,503.0981 904.912,530.1371 " fill="none" id="PersonViewModelImpl-to-RetrievePersonsUseCase" style="stroke:#A80036;stroke-width:1.0;"/><polygon fill="#A80036" points="902.006,534.3921,910.3844,529.2151,904.8255,530.2629,903.7777,524.7039,902.006,534.3921" style="stroke:#A80036;stroke-width:1.0;"/><!--MD5=[e5e8ffe10675da0b05cd4a3f04c5f994]
link PersonViewModelImpl to GetPersonsUseCase--><path codeLine="114" d="M1447.67,416.4781 C1424.45,426.1321 1397.33,437.6141 1373,448.4531 C1311.72,475.7451 1242.66,508.4841 1193.52,532.1251 " fill="none" id="PersonViewModelImpl-to-GetPersonsUseCase" style="stroke:#A80036;stroke-width:1.0;"/><polygon fill="#A80036" points="1188.83,534.3841,1198.6749,534.1044,1193.3395,532.2245,1195.2194,526.8891,1188.83,534.3841" style="stroke:#A80036;stroke-width:1.0;"/><!--MD5=[4cb8c1fba2851e6dcd85657df10d5f26]
link PersonViewModelImpl to DomainPersonToUIPersonMapper--><path codeLine="115" d="M1505.92,416.8031 C1508.3,445.8041 1512.38,495.5421 1515.14,529.0721 " fill="none" id="PersonViewModelImpl-to-DomainPersonToUIPersonMapper" style="stroke:#A80036;stroke-width:1.0;"/><polygon fill="#A80036" points="1515.57,534.3081,1518.8216,525.0115,1515.1616,529.3248,1510.8483,525.6649,1515.57,534.3081" style="stroke:#A80036;stroke-width:1.0;"/><!--MD5=[8f7793c0cb0b3b2e2bd9ef4312d806cb]
link DomainPersonToUIPersonMapper to UIPerson--><path codeLine="116" d="M1567.82,595.4641 C1600,614.5241 1642.15,639.4921 1676.69,659.9531 " fill="none" id="DomainPersonToUIPersonMapper-to-UIPerson" style="stroke:#A80036;stroke-width:1.0;"/><polygon fill="#A80036" points="1681.3,662.6801,1675.6078,654.6428,1677.0021,660.1251,1671.5198,661.5194,1681.3,662.6801" style="stroke:#A80036;stroke-width:1.0;"/><!--MD5=[6cb023f37eed48de376595f7efe453fa]
link RetrievePersonsUseCaseImpl to PersonRepository--><path codeLine="117" d="M900,722.7661 C900,747.3541 900,786.5831 900,816.3781 " fill="none" id="RetrievePersonsUseCaseImpl-to-PersonRepository" style="stroke:#A80036;stroke-width:1.0;"/><polygon fill="#A80036" points="900,821.4491,904,812.4491,900,816.4491,896,812.4491,900,821.4491" style="stroke:#A80036;stroke-width:1.0;"/><!--MD5=[16c18c2329d994228f093139400721ec]
link GetPersonsUseCaseImpl to PersonRepository--><path codeLine="118" d="M1096.06,722.7661 C1059.38,747.9631 1000.32,788.5381 956.593,818.5761 " fill="none" id="GetPersonsUseCaseImpl-to-PersonRepository" style="stroke:#A80036;stroke-width:1.0;"/><polygon fill="#A80036" points="952.411,821.4491,962.0941,819.6498,956.5322,818.6179,957.5641,813.0559,952.411,821.4491" style="stroke:#A80036;stroke-width:1.0;"/><!--MD5=[1b5c13327e1763adc694fe27517c99a0]
link GetPersonsUseCase to DomainPerson--><path codeLine="119" d="M1180.88,595.4991 C1202.3,610.4661 1224.83,630.7431 1237,655.4531 C1284.21,751.2771 1270.52,881.2201 1258.2,950.0741 " fill="none" id="GetPersonsUseCase-to-DomainPerson" style="stroke:#A80036;stroke-width:1.0;"/><polygon fill="#A80036" points="1257.24,955.3291,1262.7936,947.1954,1258.1393,950.4107,1254.924,945.7564,1257.24,955.3291" style="stroke:#A80036;stroke-width:1.0;"/><!--MD5=[c6ef18f0de263315d20ab47eaa59a0a1]
link PersonRepository to DomainPerson--><path codeLine="120" d="M990.978,895.5311 C1051.09,919.3681 1128.47,950.0531 1182.55,971.4991 " fill="none" id="PersonRepository-to-DomainPerson" style="stroke:#A80036;stroke-width:1.0;"/><polygon fill="#A80036" points="1187.38,973.4151,1180.4876,966.3799,1182.7319,971.5725,1177.5393,973.8168,1187.38,973.4151" style="stroke:#A80036;stroke-width:1.0;"/><!--MD5=[f8836f8dee9f17fbb8cfca89e96691ac]
link DomainPersonToUIPersonMapper to DomainPerson--><path codeLine="121" d="M1449.5,595.5551 C1422.27,610.2081 1392.58,630.2281 1372,655.4531 C1352.7,679.1071 1291.82,862.1111 1263.18,950.2731 " fill="none" id="DomainPersonToUIPersonMapper-to-DomainPerson" style="stroke:#A80036;stroke-width:1.0;"/><polygon fill="#A80036" points="1261.59,955.1701,1268.1714,947.8431,1263.1325,950.414,1260.5617,945.3751,1261.59,955.1701" style="stroke:#A80036;stroke-width:1.0;"/><!--MD5=[a7fb7602f0d22d29315fe1822e6bc6ac]
link RemotePersonToLocalPersonMapper to RemotePerson--><path codeLine="122" d="M703.211,1199.0991 C576.516,1220.4471 390.063,1253.5261 320,1274.4531 C308.377,1277.9251 296.267,1282.2781 284.635,1286.8581 " fill="none" id="RemotePersonToLocalPersonMapper-to-RemotePerson" style="stroke:#A80036;stroke-width:1.0;"/><polygon fill="#A80036" points="279.683,1288.8331,289.5244,1289.216,284.3275,1286.9816,286.562,1281.7847,279.683,1288.8331" style="stroke:#A80036;stroke-width:1.0;"/><!--MD5=[532a59828e8e3b82ecec09b5c10f24db]
link RemotePersonToLocalPersonMapper to LocalPerson--><path codeLine="123" d="M765.072,1208.0571 C715.286,1231.1121 646.444,1262.9921 596.311,1286.2081 " fill="none" id="RemotePersonToLocalPersonMapper-to-LocalPerson" style="stroke:#A80036;stroke-width:1.0;"/><polygon fill="#A80036" points="591.519,1288.4281,601.3667,1288.2753,596.056,1286.3268,598.0045,1281.0161,591.519,1288.4281" style="stroke:#A80036;stroke-width:1.0;"/><!--MD5=[2466497f6bad01669c64a60146b39b56]
link LocalPersonToDomainPersonMapper to RemotePerson--><path codeLine="124" d="M1004.89,1207.9831 C993.83,1210.4051 982.725,1212.6211 972,1214.4531 C685.153,1263.4541 602.458,1204.4541 320,1274.4531 C308.307,1277.3511 296.207,1281.3921 284.619,1285.8311 " fill="none" id="LocalPersonToDomainPersonMapper-to-RemotePerson" style="stroke:#A80036;stroke-width:1.0;"/><polygon fill="#A80036" points="279.688,1287.7561,289.5264,1288.2095,284.3457,1285.9379,286.6173,1280.7572,279.688,1287.7561" style="stroke:#A80036;stroke-width:1.0;"/><!--MD5=[86a24dad18e9d75a45ad5ff8f951a028]
link LocalPersonToDomainPersonMapper to LocalPerson--><path codeLine="125" d="M999.595,1207.9691 C990.271,1210.2121 980.985,1212.4001 972,1214.4531 C842.84,1243.9661 808.732,1243.1271 680,1274.4531 C652.58,1281.1251 622.587,1289.3901 596.745,1296.8181 " fill="none" id="LocalPersonToDomainPersonMapper-to-LocalPerson" style="stroke:#A80036;stroke-width:1.0;"/><polygon fill="#A80036" points="591.634,1298.2921,601.39,1299.6412,596.4382,1296.9064,599.1729,1291.9546,591.634,1298.2921" style="stroke:#A80036;stroke-width:1.0;"/><!--MD5=[4b6b86dbd10c15af9934b915d019a08f]
link PersonRepositoryImpl to PersonLocalDataSource--><path codeLine="126" d="M767.396,1022.3961 C739.251,1031.2541 707.82,1042.2161 680,1054.4531 C625.688,1078.3431 567.276,1111.8531 524.907,1137.7091 " fill="none" id="PersonRepositoryImpl-to-PersonLocalDataSource" style="stroke:#A80036;stroke-width:1.0;"/><polygon fill="#A80036" points="520.599,1140.3461,530.3635,1139.0595,524.8636,1137.7359,526.1871,1132.2361,520.599,1140.3461" style="stroke:#A80036;stroke-width:1.0;"/><!--MD5=[66f81d595ac8a61f01cbcf6fd12bd7b4]
link PersonRepositoryImpl to PersonRemoteDataSource--><path codeLine="127" d="M767.47,1002.3161 C639.754,1007.7391 398.944,1022.0051 320,1054.4531 C271.926,1074.2121 226.82,1114.1821 198.427,1142.9951 " fill="none" id="PersonRepositoryImpl-to-PersonRemoteDataSource" style="stroke:#A80036;stroke-width:1.0;"/><polygon fill="#A80036" points="194.705,1146.8061,203.8553,1143.1631,198.1989,1143.2294,198.1326,1137.5729,194.705,1146.8061" style="stroke:#A80036;stroke-width:1.0;"/><!--MD5=[340b1147da0ddcd89c58aee1b676cddb]
link PersonRepositoryImpl to RemotePersonToLocalPersonMapper--><path codeLine="128" d="M846.385,1022.5931 C842.954,1052.9601 836.902,1106.5231 832.921,1141.7551 " fill="none" id="PersonRepositoryImpl-to-RemotePersonToLocalPersonMapper" style="stroke:#A80036;stroke-width:1.0;"/><polygon fill="#A80036" points="832.349,1146.8151,837.3345,1138.3213,832.9106,1141.8468,829.3851,1137.4228,832.349,1146.8151" style="stroke:#A80036;stroke-width:1.0;"/><!--MD5=[8dbf8869c342b2ce3ff770f1f31b49e3]
link PersonRepositoryImpl to LocalPersonToDomainPersonMapper--><path codeLine="129" d="M885.095,1022.5301 C899.796,1031.0891 917.248,1040.2181 934,1046.4531 C950.175,1052.4731 956.511,1046.8391 972,1054.4531 C1016.42,1076.2921 1058.41,1115.0841 1085.25,1143.0711 " fill="none" id="PersonRepositoryImpl-to-LocalPersonToDomainPersonMapper" style="stroke:#A80036;stroke-width:1.0;"/><polygon fill="#A80036" points="1088.77,1146.7731,1085.4549,1137.499,1085.3199,1143.1542,1079.6646,1143.0192,1088.77,1146.7731" style="stroke:#A80036;stroke-width:1.0;"/><!--MD5=[04caa10b2dff56a3541a962e3dac54c6]
link PersonLocalDataSource to LocalPerson--><path codeLine="130" d="M481.603,1214.7111 C489.753,1231.4961 499.536,1251.6461 508.238,1269.5701 " fill="none" id="PersonLocalDataSource-to-LocalPerson" style="stroke:#A80036;stroke-width:1.0;"/><polygon fill="#A80036" points="510.425,1274.0751,510.0922,1264.2319,508.2411,1269.5773,502.8957,1267.7262,510.425,1274.0751" style="stroke:#A80036;stroke-width:1.0;"/><!--MD5=[8f39e2c1ef24174ecdc0bd75193f4222]
link PersonRemoteDataSource to RemotePerson--><path codeLine="131" d="M178.941,1208.0571 C185.552,1225.9471 194.127,1249.1511 201.647,1269.4971 " fill="none" id="PersonRemoteDataSource-to-RemotePerson" style="stroke:#A80036;stroke-width:1.0;"/><polygon fill="#A80036" points="203.433,1274.3311,204.0632,1264.5025,201.6988,1269.6415,196.5598,1267.2771,203.433,1274.3311" style="stroke:#A80036;stroke-width:1.0;"/><!--MD5=[8e984802ecf072e4f8724395b5617fc1]
@startuml
title Person List - Class Diagram

interface Mapper {
+ map(input: I): O
}

package presentation {

package ui {
class MainActivity
}

package viewmodel {
interface PersonViewModel {
+ retrievePersons()
+ getPersons(): Flow<List<UIPerson>>
}

class PersonViewModelImpl implements PersonViewModel
}

package presentationmapper {
interface DomainPersonToUIPersonMapper implements Mapper {
+ map(input: DomainPerson): UIPerson
}

class DomainPersonToUIPersonMapperImpl implements DomainPersonToUIPersonMapper
}

class UIPerson {
+ acronym: String
+ fullName: String
+ birthday: String
}
}

package domain {

package usecase {
interface RetrievePersonsUseCase {
+ suspend invoke()
}

class RetrievePersonsUseCaseImpl implements RetrievePersonsUseCase

interface GetPersonsUseCase {
+ invoke(): Flow<List<DomainPerson>>
}

class GetPersonsUseCaseImpl implements GetPersonsUseCase
}

package repository {
interface PersonRepository {
+ suspend retrievePersons()
+ getPersons(): Flow<List<DomainPerson>>
}

class PersonRepositoryImpl implements PersonRepository
}

package domainmapper {
interface RemotePersonToLocalPersonMapper implements Mapper {
+ map(input: RemotePerson): LocalPerson
}

class RemotePersonToLocalPersonMapperImpl implements RemotePersonToLocalPersonMapper

interface LocalPersonToDomainPersonMapper implements Mapper {
+ map(input: LocalPerson): DomainPerson
}

class LocalPersonToDomainPersonMapperImpl implements LocalPersonToDomainPersonMapper
}

class DomainPerson {
+ firstName: String
+ lastName: String
+ birthDay: Date
}
}

package data {

package local {
interface PersonLocalDataSource {
+ addPersons(persons: List<LocalPerson>)
+ getPersons(): Flow<List<LocalPerson>>
}

class LocalPerson {
+ firstName: String
+ lastName: String
+ birthDay: Date
}
}

package remote {
interface PersonRemoteDataSource {
+ getPersons(): List<RemotePerson>
}

class RemotePerson {
+ firstName: String
+ lastName: String
+ birthDay: String
}
}
}

MainActivity - -> PersonViewModel
PersonViewModel - -> UIPerson
PersonViewModelImpl - -> RetrievePersonsUseCase
PersonViewModelImpl - -> GetPersonsUseCase
PersonViewModelImpl - -> DomainPersonToUIPersonMapper
DomainPersonToUIPersonMapper - -> UIPerson
RetrievePersonsUseCaseImpl - -> PersonRepository
GetPersonsUseCaseImpl - -> PersonRepository
GetPersonsUseCase - -> DomainPerson
PersonRepository - -> DomainPerson
DomainPersonToUIPersonMapper - -> DomainPerson
RemotePersonToLocalPersonMapper - -> RemotePerson
RemotePersonToLocalPersonMapper - -> LocalPerson
LocalPersonToDomainPersonMapper - -> RemotePerson
LocalPersonToDomainPersonMapper - -> LocalPerson
PersonRepositoryImpl - -> PersonLocalDataSource
PersonRepositoryImpl - -> PersonRemoteDataSource
PersonRepositoryImpl - -> RemotePersonToLocalPersonMapper
PersonRepositoryImpl - -> LocalPersonToDomainPersonMapper
PersonLocalDataSource - -> LocalPerson
PersonRemoteDataSource - -> RemotePerson
@enduml

PlantUML version 1.2021.3beta6(Unknown compile time)
(GPL source distribution)
Java Runtime: Java(TM) SE Runtime Environment
JVM: Java HotSpot(TM) 64-Bit Server VM
Default Encoding: UTF-8
Language: en
Country: US
--></g></svg>